<?xml version="1.0" encoding="UTF-8"?>
<svg width="2065px" height="311px" viewBox="0 0 2065 311" version="1.1" xmlns="http://www.w3.org/2000/svg" xmlns:xlink="http://www.w3.org/1999/xlink">
    <!-- Generator: Sketch 63.1 (92452) - https://sketch.com -->
    <title>MEXvsCOVID_LOGO_COLOR (1)</title>
    <desc>Created with Sketch.</desc>
    <g id="MEXvsCOVID_LOGO_COLOR-(1)" stroke="none" stroke-width="1" fill="none" fill-rule="evenodd">
        <g id="Group-82" transform="translate(27.000000, 12.000000)">
            <g id="Group">
                <path d="M340.584014,71.5283084 C339.30183,65.1709517 335.205839,59.8942174 329.34811,57.0534625 C320.186895,52.6100895 308.924298,55.5854643 303.157694,63.9721934 C291.159659,81.4379824 271.250378,106.51117 243,129.717079 C246.036557,130.761986 249.0455,131.822461 252.059045,132.891179 C252.343464,132.961694 252.628802,133.028546 252.915062,133.095398 C258.73045,134.347272 264.687586,135.00114 270.676019,134.998392 C276.913892,135.035939 283.167413,134.414124 289.368468,133.306028 C305.158747,121.070268 320.749289,106.267572 335.869481,89.1204753 C340.150483,84.2769058 341.867118,77.8627706 340.584014,71.5283084 Z" id="Stroke-48" stroke="#FFFFFF" stroke-width="4.995"></path>
                <path d="M412.401725,57.9533685 C410.934949,51.8832233 406.875796,46.8267711 401.288253,44.0897076 C392.080211,39.5802984 380.763506,42.5779466 374.969052,51.0691271 C371.198656,56.5977736 367.206634,62.1680028 363.102421,67.630117 C350.300548,84.690099 331.786065,106.791748 309,127 C314.004511,125.381048 318.966719,123.548639 323.904099,121.592405 C329.683839,119.307207 335.413002,116.82888 341.184466,114.303426 L349.887643,110.518479 C352.818436,109.282088 355.782335,108.057709 358.806009,106.906332 C361.838878,105.75865 364.93704,104.67288 368.202571,103.799644 C371.469021,102.941193 374.899161,102.225047 378.750483,102.326694 C380.667867,102.38491 382.724112,102.694469 384.743573,103.4753 C384.93761,103.551072 385.12705,103.638858 385.309132,103.718327 C394.661553,93.7329428 402.545358,83.9721049 408.881463,75.3977591 C412.594843,70.3838136 413.876777,64.0281341 412.401725,57.9533685 Z" id="Stroke-50" stroke="#FFFFFF" stroke-width="4.995"></path>
                <path d="M472.239745,64.8868917 L472.626214,64.0735775 C475.913472,57.2332553 473.097251,48.9544183 466.355416,45.621859 C454.576757,39.8004847 440.532026,43.9555794 433.675614,55.2857276 L433.408269,55.7237369 C425.477929,68.7930126 412.261605,88.5025094 394.320359,108.21385 C393.882058,108.687823 393.43921,109.154418 393,109.632079 C394.674092,111.657987 396.097206,113.949467 397.092023,116.436438 C398.526049,119.911926 399.063468,123.708315 398.891603,127.336876 C398.736106,130.98849 397.863142,134.46859 396.630988,137.707092 C396.193596,138.833929 395.704372,139.930335 395.181503,141 C418.415098,130.51083 435.456099,115.348331 446.750081,102.690323 C464.208469,83.1126896 472.159723,65.0639396 472.239745,64.8868917 Z" id="Stroke-52" stroke="#FFFFFF" stroke-width="4.995"></path>
                <path d="M501.342704,90.3915622 C499.995503,85.6692178 496.827237,81.8839852 492.393501,79.7191558 C484.656505,75.9421999 475.264663,78.5686879 470.550834,85.8319939 C457.578393,105.815741 430.353347,138.795822 385.014086,154.183216 C384.897458,154.304608 384.789094,154.429679 384.671546,154.551072 C380.067918,159.287211 374.878391,163.328103 369.332548,166.698578 C363.796807,170.089286 357.935975,172.862916 351.923617,175.096718 L334.217143,181.634429 C322.4064,185.997195 310.611267,190.392148 298.838175,194.875387 L298.840012,194.872628 C298.933683,194.821128 299.032863,194.773307 299.13388,194.726405 C301.3884,193.591571 303.652103,192.476969 305.920397,191.373403 C310.421172,189.182823 314.943986,187.041905 319.476902,184.943289 C319.892909,184.741888 320.316262,184.543246 320.735025,184.353801 C324.828975,182.464863 328.924762,180.592479 333.017794,178.722854 L350.288057,171.027317 C355.950528,168.561766 361.363212,165.621681 366.384684,162.143608 C366.946706,161.759199 367.497709,161.357317 368.04963,160.957274 C368.225951,160.831284 368.395844,160.698856 368.573083,160.572865 C368.962458,160.285938 369.34265,159.999011 369.722842,159.713003 C369.910183,159.564022 370.103952,159.422397 370.290375,159.277095 C370.728422,158.93223 371.164632,158.586446 371.594415,158.237903 C371.700023,158.159734 371.805632,158.080645 371.902976,157.998797 C374.827882,155.606817 377.572794,153.030909 380.038532,150.237047 C384.002078,145.771281 387.289728,140.715108 389.174157,135.360052 C390.10076,132.686663 390.666456,129.942461 390.695843,127.27367 C390.715128,124.605798 390.243103,122.020694 389.171402,119.695847 C388.120824,117.367322 386.534854,115.288939 384.547571,113.523233 L383.787187,112.873048 C383.572296,112.701076 383.408832,112.582443 383.204042,112.449095 C382.815586,112.200793 382.388558,111.992954 381.930308,111.827419 C381.004623,111.49543 379.890679,111.332654 378.664698,111.321618 C376.201716,111.304145 373.406295,111.889955 370.616385,112.700156 C367.813617,113.518635 364.975953,114.585416 362.140126,115.729446 C359.30889,116.880834 356.472144,118.126024 353.63448,119.40984 L345.059959,123.271403 C339.312082,125.87398 333.515533,128.473798 327.61062,130.902564 C321.701116,133.340526 315.663044,135.550418 309.492732,137.476141 C303.327011,139.393587 297.008846,141.010312 290.560278,142.086289 C284.119055,143.165945 277.538246,143.782103 270.930805,143.682782 C265.262823,143.588979 259.575557,143.019723 253.992062,141.863737 C253.722989,141.80488 253.443814,141.746023 253.174741,141.686247 C252.521803,141.545542 251.870701,141.401159 251.22511,141.24482 C250.48493,141.06733 249.741994,140.873286 249.010997,140.674644 C248.483871,140.53302 247.95399,140.376681 247.431456,140.22678 C247.254217,140.174361 247.074223,140.129298 246.899738,140.0732 C246.233943,139.878237 245.574577,139.672238 244.918884,139.457962 C244.894088,139.450605 244.862865,139.435891 244.836233,139.432212 C244.14748,139.206901 243.460563,138.976991 242.773646,138.728689 C242.412739,138.600859 242.055506,138.484065 241.699191,138.347958 C238.684287,137.228758 235.755708,135.933907 232.887739,134.495592 C202.232701,124.416353 169.629868,117.426179 130.678566,126.704414 C87.9822817,136.880215 59.542275,159.966823 43.2041252,177.546636 C28.4161299,193.455465 20.5625041,207.860684 18.2932911,212.354958 C20.4339368,207.798149 0,249.93967 0,249.93967 C179.66271,335.24627 393.68687,273.078698 499.384808,104.21741 C501.965337,100.102027 502.673376,95.0578087 501.342704,90.3915622 Z" id="Stroke-54" stroke="#FFFFFF" stroke-width="4.995"></path>
                <path d="M256.995009,27.1512364 C257.455406,61.7082421 225.963544,69.7351695 203.000113,92 C179.842537,68.0882922 149.463763,63.1147593 149.002442,28.5577537 C148.800903,13.3629802 161.098482,0.884366154 176.468145,0.68421847 C188.500396,0.527024855 198.848223,7.94254225 202.872533,18.4608057 C206.616721,7.84201145 216.764859,0.159630476 228.798034,0.00243686071 C244.167697,-0.197710823 256.791621,11.9564629 256.995009,27.1512364" id="Fill-56" fill="#FFFFFF"></path>
            </g>
            <g id="Texto" transform="translate(570.000000, 26.000000)" fill="#FFFFFF">
                <g id="Texto-abajo" transform="translate(300.000000, 206.000000)">
                    <path d="M0.328312693,28.2694813 C1.12255418,28.2694813 1.69071207,28.0737938 2.03278638,27.6804813 C2.37486068,27.2910438 2.58128483,26.7911688 2.65009288,26.1847313 C2.71890093,25.5744188 2.75232198,24.6231063 2.75232198,23.3269188 L2.75232198,14.0947313 C2.75232198,12.9612938 2.80736842,12.0836062 2.91549536,11.4616688 L0,11.6244188 L0,9.92329375 C1.61404025,9.92329375 2.72479876,9.83416875 3.32637771,9.65979375 C3.9299226,9.48541875 4.43713622,9.20835625 4.84801858,8.83054375 L6.0393808,8.83054375 C6.09442724,9.23548125 6.14947368,9.95041875 6.20452012,10.9753562 C7.05380805,10.2468563 8.01122291,9.66560625 9.08069659,9.23548125 C10.1501703,8.80341875 11.2039164,8.58641875 12.2458669,8.58641875 C13.5866409,8.58641875 14.7308204,8.82279375 15.6764396,9.29554375 C16.6220588,9.76829375 17.3533901,10.4367313 17.8763313,11.2989188 C18.8612693,10.5181063 19.9641641,9.86904375 21.1830495,9.35560625 C22.401935,8.84410625 23.5716718,8.58641875 24.6981579,8.58641875 C27.1064396,8.58641875 28.8679257,9.30910625 29.9767183,10.7525437 C31.0874768,12.1979188 31.6143498,14.4996688 31.5593034,17.6577938 L31.5180186,25.1907938 C31.5180186,26.4056063 31.4629721,27.3259188 31.3528793,27.9459188 L33.9439938,27.8238563 L33.9439938,29.4842938 L25.5592415,29.4842938 L25.5592415,28.2694813 C26.353483,28.2694813 26.9216409,28.0737938 27.2656811,27.6804813 C27.6077554,27.2910438 27.8122136,26.7911688 27.8829876,26.1847313 C27.9498297,25.5744188 27.9832508,24.6231063 27.9832508,23.3269188 L27.9832508,17.6577938 C27.9832508,15.3366688 27.6136533,13.6026062 26.8744582,12.4536688 C26.1352632,11.3066687 24.9694582,10.7331687 23.3829412,10.7331687 C22.5316873,10.7331687 21.6765015,10.9152937 20.813452,11.2795438 C19.9504025,11.6437938 19.191548,12.1242938 18.5329567,12.7171687 C18.8062229,13.5541688 18.943839,14.5403563 18.943839,15.6737938 L18.8612693,25.1907938 C18.8612693,26.4056063 18.8062229,27.3259188 18.698096,27.9459188 L21.2852786,27.8238563 L21.2852786,29.4842938 L12.9024923,29.4842938 L12.9024923,28.2694813 C13.6967337,28.2694813 14.2648916,28.0737938 14.6089319,27.6804813 C14.9490402,27.2910438 15.1495666,26.8047313 15.2026471,26.2234813 C15.2596594,25.6441688 15.2989783,24.6773563 15.3284675,23.3269188 L15.3677864,17.6577938 C15.3953096,15.3095438 15.0532353,13.5541688 14.3415635,12.3936063 C13.6298916,11.2330438 12.4916099,10.6517938 10.9306502,10.6517938 C10.0813622,10.6517938 9.23797214,10.8281063 8.40244582,11.1787938 C7.5669195,11.5294812 6.8473839,12.0022313 6.24580495,12.5951063 L6.28512384,14.7825438 L6.28512384,25.1907938 C6.28512384,26.4056063 6.23204334,27.3259188 6.12195046,27.9459188 L8.71109907,27.8238563 L8.71109907,29.4842938 L0.328312693,29.4842938 L0.328312693,28.2694813 Z" id="Fill-2"></path>
                    <path d="M55.9275759,16.0787312 C55.9275759,14.4589812 55.5579783,13.0678562 54.8187833,11.9072937 C54.0795882,10.7467312 52.9688297,10.1654812 51.4884737,10.1654812 C48.0932879,10.1654812 46.078195,12.1378562 45.4490929,16.0787312 L55.9275759,16.0787312 Z M46.0034892,28.8158562 C44.4838142,27.9381687 43.2826223,26.6846062 42.4077771,25.0493562 C41.5309659,23.4160437 41.0925604,21.5327937 41.0925604,19.3996062 C41.0925604,17.5105437 41.5309659,15.7338562 42.4077771,14.0753562 C43.2826223,12.4129812 44.5093715,11.0838562 46.0860588,10.0841062 C47.6607802,9.08629375 49.4478235,8.58641875 51.4491548,8.58641875 C53.0101146,8.58641875 54.4196966,8.92548125 55.6818328,9.59779375 C56.9420031,10.2739812 57.9407028,11.2795437 58.6798978,12.6164187 C59.4190929,13.9513562 59.7906563,15.5924187 59.7906563,17.5376687 L45.3252384,17.7798562 C45.2977152,21.0193562 45.8383498,23.5458562 46.9491084,25.3535437 C48.0579009,27.1631687 49.7761362,28.0660437 52.1057802,28.0660437 C53.3659505,28.0660437 54.6595418,27.7444187 55.9885201,27.0953562 C57.3174985,26.4482312 58.3397895,25.6499812 59.0514613,24.7044812 L60.0383653,25.5143562 C58.9964149,27.0817937 57.6458111,28.2423562 55.9885201,28.9979812 C54.3312291,29.7536062 52.7073591,30.1314187 51.1208421,30.1314187 C49.2296037,30.1314187 47.52513,29.6916062 46.0034892,28.8158562 L46.0034892,28.8158562 Z" id="Fill-4"></path>
                    <path d="M66.5310929,28.2694813 C67.2978111,28.0796063 67.9131517,27.7696063 68.3790805,27.3394813 C68.8450093,26.9054813 69.5291579,26.1227313 70.4334923,24.9892938 L74.5442817,19.7231688 C74.0783529,19.1302937 73.6320836,18.5490437 73.2074396,17.9813563 C72.7847616,17.4136688 72.3915728,16.8886063 72.0377028,16.4022937 L70.476743,14.3388562 C69.5173622,13.0949812 68.8174861,11.9208562 68.3790805,10.8126062 L66.4485232,10.8939813 L66.4485232,9.23548125 L74.9138793,9.23548125 L74.9138793,10.4502938 C74.2002415,10.4754813 73.6733684,10.5704187 73.3312941,10.7331687 C72.9892198,10.8939813 72.8181827,11.1516688 72.8181827,11.5023562 C72.8181827,12.0700437 73.2565882,12.9477313 74.1333994,14.1354188 L76.5161238,17.3342313 L80.2553498,12.8799188 L80.9119752,12.0700437 C81.5155201,11.3667312 81.9126409,10.9230438 82.1053034,10.7331687 L79.2684458,10.8939813 L79.2684458,9.23548125 L86.0096687,9.23548125 L86.0096687,10.4502938 C84.9677183,10.7467313 84.1459536,11.1574812 83.5424087,11.6844813 C82.9408297,12.2114813 81.9952105,13.2441687 80.707517,14.7825438 L77.5443127,18.5083563 L83.214096,25.4349188 C83.3241889,25.5957313 83.5699319,25.9192938 83.953291,26.4056063 C84.3386161,26.8919188 84.694452,27.4053563 85.0227647,27.9459188 L86.8727183,27.8238563 L86.8727183,29.4842938 L78.9401331,29.4842938 L78.9401331,28.2694813 C79.9545604,28.2694813 80.461774,27.9866063 80.461774,27.4189188 C80.461774,27.1224812 80.2828731,26.7446688 79.9270372,26.2854813 L75.6117895,21.0193563 L72.1595913,25.6771063 C71.4479195,26.6226063 70.8188173,27.3782313 70.2703189,27.9459188 L73.4354892,27.8238563 L73.4354892,29.4842938 L66.5310929,29.4842938 L66.5310929,28.2694813 Z" id="Fill-6"></path>
                    <path d="M95.7898483,4.111375 C95.3494768,3.638625 95.131257,3.0786875 95.131257,2.4315625 C95.131257,1.7825 95.3573406,1.21675 95.8114737,0.7304375 C96.2616749,0.244125 96.7767523,5.5067062e-14 97.350808,5.5067062e-14 C97.9799102,5.5067062e-14 98.5087492,0.236375 98.9333932,0.709125 C99.3560712,1.181875 99.5703591,1.755375 99.5703591,2.4315625 C99.5703591,3.0786875 99.3442755,3.638625 98.8921084,4.111375 C98.4399412,4.584125 97.9130681,4.8205 97.3095232,4.8205 C96.7335015,4.8205 96.2282539,4.584125 95.7898483,4.111375 L95.7898483,4.111375 Z M93.2419845,28.2700625 C94.036226,28.2700625 94.6043839,28.074375 94.9464582,27.6810625 C95.2885325,27.291625 95.4949567,26.79175 95.5637647,26.1853125 C95.6325728,25.575 95.6679598,24.6236875 95.6679598,23.3275 L95.6679598,14.093375 C95.6679598,13.3125625 95.7210402,12.434875 95.8311331,11.46225 L92.9136718,11.625 L92.9136718,9.923875 C94.5277121,9.923875 95.6856533,9.8289375 96.3855294,9.641 C97.0834396,9.451125 97.6260402,9.179875 98.0093994,8.831125 L99.1987957,8.831125 L99.1987957,25.191375 C99.1987957,26.4061875 99.1457152,27.3245625 99.0356223,27.9465 L101.624771,27.8225 L101.624771,29.484875 L93.2419845,29.484875 L93.2419845,28.2700625 Z" id="Fill-8"></path>
                    <path d="M113.809693,28.8768875 C112.260529,28.0398875 111.035746,26.8386375 110.131412,25.2731375 C109.227077,23.7057 108.77491,21.857325 108.77491,19.7222 C108.77491,17.835075 109.232975,16.0312625 110.153037,14.316575 C111.069167,12.603825 112.343099,11.22045 113.972867,10.16645 C115.602635,9.11245 117.44669,8.58545 119.501102,8.58545 C120.979492,8.58545 122.294709,8.8160125 123.444786,9.2752 C124.594864,9.7343875 125.4933,10.3427625 126.13813,11.09645 C126.780994,11.8540125 127.103409,12.67745 127.103409,13.5687 C127.103409,14.1887 126.924508,14.7021375 126.568672,15.107075 C126.212836,15.5120125 125.719384,15.7135125 125.088316,15.7135125 C124.486737,15.7135125 124.03457,15.517825 123.73378,15.12645 C123.432991,14.735075 123.279647,14.324325 123.279647,13.8922625 C123.279647,13.2180125 123.486071,12.67745 123.89892,12.2725125 C123.596164,11.4355125 123.014245,10.8620125 122.151195,10.550075 C121.288146,10.240075 120.430994,10.085075 119.583672,10.085075 C118.321536,10.085075 117.193084,10.4241375 116.192418,11.09645 C115.191752,11.7726375 114.405375,12.758825 113.829353,14.0550125 C113.255297,15.3512 112.966303,16.9031375 112.966303,18.710825 C112.966303,20.5223875 113.261195,22.128575 113.850978,23.531325 C114.438796,24.9360125 115.268424,26.034575 116.335932,26.8308875 C117.405406,27.6272 118.638053,28.026325 120.033873,28.026325 C121.268486,28.026325 122.479508,27.69695 123.672836,27.034325 C124.864198,26.3736375 125.801954,25.54245 126.486102,24.5446375 L127.555576,25.3545125 C126.541149,26.918075 125.233796,28.1077 123.629585,28.917575 C122.029307,29.7255125 120.460483,30.13045 118.927046,30.13045 C117.061365,30.13045 115.356892,29.7138875 113.809693,28.8768875" id="Fill-10"></path>
                    <path d="M144.322132,27.2364062 C145.17142,26.8450312 146.032503,26.2444062 146.909314,25.4345312 C146.883757,25.0276562 146.869995,24.3417812 146.869995,23.3691562 L146.909314,19.5619687 C144.664206,19.6433437 142.662875,20.0947812 140.911218,20.9182187 C139.157596,21.7416562 138.280785,23.0029687 138.280785,24.7040937 C138.280785,25.7038437 138.581574,26.4730312 139.185119,27.0135937 C139.786698,27.5541562 140.553416,27.8234687 141.48724,27.8234687 C142.527224,27.8234687 143.470878,27.6277812 144.322132,27.2364062 M135.959005,28.7960937 C134.903293,27.9048437 134.37642,26.7442812 134.37642,25.3124687 C134.37642,23.7469687 135.015351,22.4255937 136.287317,21.3444687 C137.563215,20.2633437 139.163494,19.4592812 141.094051,18.9342187 C143.026574,18.4072187 144.964995,18.1572812 146.909314,18.1844062 L146.909314,15.6734062 C146.909314,13.9199687 146.64981,12.5501562 146.128834,11.5620312 C145.607859,10.5777812 144.499067,10.0837187 142.802457,10.0837187 C141.951203,10.0837187 141.1432,10.2600312 140.376481,10.6107187 C139.609763,10.9633438 139.047503,11.4884062 138.691667,12.1897812 C139.047503,12.5695312 139.226404,13.0810312 139.226404,13.7300938 C139.226404,14.1350312 139.075026,14.5205937 138.774237,14.8848438 C138.471481,15.2490937 138.035042,15.4312187 137.45902,15.4312187 C136.882998,15.4312187 136.430831,15.2490937 136.102519,14.8848438 C135.774206,14.5205937 135.609067,14.0400937 135.609067,13.4472187 C135.609067,12.5559687 135.959005,11.7383437 136.658881,10.9962812 C137.356791,10.2522812 138.327967,9.66715625 139.574376,9.23509375 C140.822751,8.80303125 142.212673,8.58603125 143.74611,8.58603125 C146.048231,8.58603125 147.744841,9.18859375 148.841837,10.3898437 C149.936868,11.5910937 150.471605,13.4859687 150.444082,16.0783437 L150.404763,25.1904062 C150.404763,26.0564687 150.347751,26.9729062 150.239624,27.9455312 L153.157085,27.7827812 L153.157085,29.4839062 L147.280878,29.4839062 C147.198308,29.0789687 147.101977,28.3097812 146.991884,27.1763437 C144.992519,29.1467812 142.841776,30.1310312 140.539655,30.1310312 C138.542255,30.1310312 137.012751,29.6873437 135.959005,28.7960937" id="Fill-12"></path>
                    <path d="M160.101587,28.2694813 C160.895828,28.2694813 161.463986,28.0737938 161.80606,27.6804813 C162.148135,27.2910438 162.348661,26.8047313 162.401741,26.2234813 C162.456788,25.6441688 162.498073,24.6773563 162.525596,23.3269188 L162.566881,14.0947313 C162.566881,12.9612938 162.621927,12.0836062 162.73202,11.4616688 L159.814559,11.6244188 L159.814559,9.92329375 C161.430565,9.92329375 162.539358,9.83416875 163.142902,9.65979375 C163.744481,9.48541875 164.251695,9.20835625 164.662577,8.83054375 L165.85394,8.83054375 C165.908986,9.34204375 165.962067,10.1654812 166.019079,11.2989188 C166.948971,10.4890438 168.01058,9.83416875 169.203909,9.33623125 C170.395271,8.83635625 171.566974,8.58641875 172.717051,8.58641875 C175.101741,8.58641875 176.841602,9.32266875 177.934667,10.7932313 C179.031664,12.2657312 179.580163,14.5539188 179.580163,17.6577938 L179.580163,25.1907938 C179.580163,26.4056063 179.525116,27.3259188 179.415023,27.9459188 L182.004172,27.8238563 L182.004172,29.4842938 L173.621385,29.4842938 L173.621385,28.2694813 C174.415627,28.2694813 174.983785,28.0737938 175.325859,27.6804813 C175.667933,27.2910438 175.874358,26.7911688 175.943166,26.1847313 C176.011974,25.5744188 176.045395,24.6231063 176.045395,23.3269188 L176.045395,17.6577938 C176.017872,15.3366688 175.634512,13.5890437 174.893351,12.4129813 C174.154156,11.2388563 172.992283,10.6517938 171.401834,10.6517938 C170.41493,10.6517938 169.43589,10.8939813 168.464714,11.3802937 C167.491571,11.8666063 166.691432,12.5001688 166.058398,13.2848563 C166.087887,13.5812938 166.101649,14.1082938 166.101649,14.8639188 L166.058398,25.1907938 C166.058398,26.4056063 166.005317,27.3259188 165.895224,27.9459188 L168.484373,27.8238563 L168.484373,29.4842938 L160.101587,29.4842938 L160.101587,28.2694813 Z" id="Fill-14"></path>
                    <path d="M204.091556,26.0822375 C205.037175,24.4624875 205.510967,22.4513625 205.510967,20.0488625 C205.510967,17.3228 204.99589,14.9842375 203.969667,13.0428625 C202.941478,11.0976125 201.400178,10.126925 199.345766,10.126925 C197.318878,10.126925 195.791339,10.948425 194.765116,12.5953 C193.734961,14.2441125 193.223816,16.2688 193.223816,18.6713 C193.223816,20.3976125 193.463661,22.01155 193.941385,23.511175 C194.421076,25.0088625 195.146509,26.2178625 196.119652,27.1362375 C197.090828,28.0546125 198.278259,28.5118625 199.674079,28.5118625 C201.67541,28.5118625 203.147902,27.7019875 204.091556,26.0822375 M194.145844,28.81605 C192.573088,27.9383625 191.32668,26.7158 190.408584,25.1522375 C189.488522,23.5848 189.032423,21.8158625 189.032423,19.845425 C189.032423,17.7393625 189.482624,15.8289875 190.386958,14.1143 C191.291293,12.3996125 192.529837,11.0511125 194.106525,10.0629875 C195.681246,9.080675 197.427005,8.5866125 199.345766,8.5866125 C201.237005,8.5866125 202.976865,9.03805 204.565348,9.9428625 C206.153831,10.8496125 207.408104,12.0818625 208.324234,13.6493 C209.24233,15.2167375 209.702361,16.9566125 209.702361,18.8728 C209.702361,20.92655 209.24233,22.8156125 208.324234,24.5438625 C207.408104,26.2721125 206.161695,27.6361125 204.585008,28.633925 C203.010286,29.6317375 201.264528,30.1316125 199.345766,30.1316125 C197.456494,30.1316125 195.722531,29.6918 194.145844,28.81605" id="Fill-16"></path>
                    <path d="M222.193971,29.6261187 C221.124497,29.2889937 220.206401,28.8627437 219.441649,28.3512437 L219.604822,29.7675562 L217.878723,29.7675562 L217.63298,22.8022437 L218.906912,22.8022437 C218.959992,23.9104937 219.270611,24.8947437 219.830906,25.7588687 C220.3912,26.6229937 221.132361,27.3049937 222.050457,27.8048687 C222.968553,28.3028062 223.947593,28.5527437 224.987577,28.5527437 C226.167144,28.5527437 227.214992,28.2776187 228.133088,27.7234937 C229.049218,27.1693687 229.509249,26.3788687 229.509249,25.3539312 C229.509249,24.5963687 229.2812,23.9628062 228.830998,23.4493687 C228.378831,22.9378687 227.816571,22.5116187 227.146184,22.1725562 C226.473831,21.8354312 225.536076,21.4382437 224.330952,20.9790562 C222.878119,20.4404312 221.71428,19.9328062 220.839435,19.4600562 C219.960658,18.9892437 219.205735,18.3479312 218.576633,17.5380562 C217.947531,16.7281812 217.63298,15.7013062 217.63298,14.4593687 C217.63298,13.5681187 217.8512,12.6768687 218.291571,11.7856187 C218.728011,10.8943687 219.467206,10.1387437 220.509156,9.51874375 C221.551107,8.89680625 222.933166,8.58680625 224.659265,8.58680625 C225.508553,8.58680625 226.379466,8.72243125 227.268073,8.99174375 C228.158646,9.26105625 228.988274,9.70861875 229.754992,10.3286187 L229.674389,8.78830625 L231.400488,8.78830625 L231.400488,15.8756812 L230.085271,15.8756812 C230.002701,14.3121187 229.515147,12.9558687 228.624574,11.8069312 C227.734002,10.6599312 226.481695,10.0844937 224.863723,10.0844937 C223.631076,10.0844937 222.652036,10.3886812 221.926602,10.9970562 C221.201169,11.6034937 220.839435,12.3261812 220.839435,13.1631812 C220.839435,13.9459312 221.077314,14.6066187 221.557005,15.1471812 C222.036695,15.6877437 222.632376,16.1469312 223.344048,16.5247437 C224.05572,16.9044937 225.017067,17.3210562 226.22219,17.7802437 C227.643568,18.3479312 228.795611,18.8729937 229.674389,19.3593062 C230.549234,19.8456187 231.296293,20.4869312 231.911633,21.2832437 C232.52894,22.0795562 232.837593,23.0463687 232.837593,24.1778687 C232.837593,25.4740562 232.501416,26.5687437 231.829063,27.4599937 C231.160642,28.3512437 230.281865,29.0196812 229.19863,29.4633687 C228.119327,29.9089937 226.961385,30.1318062 225.728738,30.1318062 C224.441045,30.1318062 223.261478,29.9632437 222.193971,29.6261187" id="Fill-18"></path>
                    <path d="M260.266841,28.8768875 C258.717676,28.0398875 257.492893,26.8386375 256.588559,25.2731375 C255.684224,23.7057 255.232057,21.857325 255.232057,19.7222 C255.232057,17.835075 255.690122,16.0312625 256.610184,14.316575 C257.526314,12.603825 258.800246,11.22045 260.430014,10.16645 C262.059782,9.11245 263.903837,8.58545 265.958249,8.58545 C267.436639,8.58545 268.751856,8.8160125 269.901933,9.2752 C271.052011,9.7343875 271.950447,10.3427625 272.595277,11.09645 C273.238141,11.8540125 273.560556,12.67745 273.560556,13.5687 C273.560556,14.1887 273.381655,14.7021375 273.025819,15.107075 C272.669983,15.5120125 272.176531,15.7135125 271.545463,15.7135125 C270.943884,15.7135125 270.491717,15.517825 270.190927,15.12645 C269.890138,14.735075 269.736794,14.324325 269.736794,13.8922625 C269.736794,13.2180125 269.943218,12.67745 270.356067,12.2725125 C270.053311,11.4355125 269.471392,10.8620125 268.608342,10.550075 C267.745293,10.240075 266.888141,10.085075 266.040819,10.085075 C264.778683,10.085075 263.650231,10.4241375 262.649565,11.09645 C261.648899,11.7726375 260.862522,12.758825 260.2865,14.0550125 C259.712444,15.3512 259.42345,16.9031375 259.42345,18.710825 C259.42345,20.5223875 259.718342,22.128575 260.308125,23.531325 C260.895943,24.9360125 261.725571,26.034575 262.793079,26.8308875 C263.862553,27.6272 265.0952,28.026325 266.49102,28.026325 C267.725633,28.026325 268.936655,27.69695 270.129983,27.034325 C271.321345,26.3736375 272.259101,25.54245 272.943249,24.5446375 L274.012723,25.3545125 C272.998296,26.918075 271.690943,28.1077 270.086732,28.917575 C268.486454,29.7255125 266.91763,30.13045 265.384193,30.13045 C263.518512,30.13045 261.814039,29.7138875 260.266841,28.8768875" id="Fill-20"></path>
                    <path d="M296.059019,26.0822375 C297.004638,24.4624875 297.47843,22.4513625 297.47843,20.0488625 C297.47843,17.3228 296.963353,14.9842375 295.93713,13.0428625 C294.908941,11.0976125 293.367641,10.126925 291.313229,10.126925 C289.286341,10.126925 287.758802,10.948425 286.732579,12.5953 C285.702424,14.2441125 285.191279,16.2688 285.191279,18.6713 C285.191279,20.3976125 285.431124,22.01155 285.908848,23.511175 C286.388539,25.0088625 287.113972,26.2178625 288.087115,27.1362375 C289.058291,28.0546125 290.245721,28.5118625 291.641542,28.5118625 C293.642873,28.5118625 295.115365,27.7019875 296.059019,26.0822375 M286.113307,28.81605 C284.540551,27.9383625 283.294142,26.7158 282.376046,25.1522375 C281.455985,23.5848 280.999885,21.8158625 280.999885,19.845425 C280.999885,17.7393625 281.450087,15.8289875 282.354421,14.1143 C283.258755,12.3996125 284.4973,11.0511125 286.073988,10.0629875 C287.648709,9.080675 289.394467,8.5866125 291.313229,8.5866125 C293.204467,8.5866125 294.944328,9.03805 296.532811,9.9428625 C298.121294,10.8496125 299.375567,12.0818625 300.291697,13.6493 C301.209793,15.2167375 301.669824,16.9566125 301.669824,18.8728 C301.669824,20.92655 301.209793,22.8156125 300.291697,24.5438625 C299.375567,26.2721125 298.129158,27.6361125 296.552471,28.633925 C294.977749,29.6317375 293.231991,30.1316125 291.313229,30.1316125 C289.423957,30.1316125 287.689994,29.6918 286.113307,28.81605" id="Fill-22"></path>
                    <path d="M309.27154,28.2694813 C310.065782,28.2694813 310.63394,28.0737938 310.976014,27.6804813 C311.318088,27.2910438 311.518615,26.8047313 311.571695,26.2234813 C311.626741,25.6441688 311.668026,24.6773563 311.69555,23.3269188 L311.736834,14.0947313 C311.736834,12.9612938 311.791881,12.0836062 311.901974,11.4616688 L308.984512,11.6244188 L308.984512,9.92329375 C310.600519,9.92329375 311.709311,9.83416875 312.312856,9.65979375 C312.914435,9.48541875 313.421649,9.20835625 313.832531,8.83054375 L315.023893,8.83054375 C315.07894,9.34204375 315.13202,10.1654812 315.189033,11.2989188 C316.118924,10.4890438 317.180534,9.83416875 318.373862,9.33623125 C319.565224,8.83635625 320.736927,8.58641875 321.887005,8.58641875 C324.271695,8.58641875 326.011556,9.32266875 327.104621,10.7932313 C328.201618,12.2657312 328.750116,14.5539188 328.750116,17.6577938 L328.750116,25.1907938 C328.750116,26.4056063 328.69507,27.3259188 328.584977,27.9459188 L331.174125,27.8238563 L331.174125,29.4842938 L322.791339,29.4842938 L322.791339,28.2694813 C323.58558,28.2694813 324.153738,28.0737938 324.495813,27.6804813 C324.837887,27.2910438 325.044311,26.7911688 325.113119,26.1847313 C325.181927,25.5744188 325.215348,24.6231063 325.215348,23.3269188 L325.215348,17.6577938 C325.187825,15.3366688 324.804466,13.5890437 324.063305,12.4129813 C323.32411,11.2388563 322.162237,10.6517938 320.571788,10.6517938 C319.584884,10.6517938 318.605844,10.8939813 317.634667,11.3802937 C316.661525,11.8666063 315.861385,12.5001688 315.228351,13.2848563 C315.257841,13.5812938 315.271602,14.1082938 315.271602,14.8639188 L315.228351,25.1907938 C315.228351,26.4056063 315.175271,27.3259188 315.065178,27.9459188 L317.654327,27.8238563 L317.654327,29.4842938 L309.27154,29.4842938 L309.27154,28.2694813 Z" id="Fill-24"></path>
                    <path d="M340.093025,22.6801813 L340.175594,10.9350563 L337.010424,10.9757438 L337.010424,9.23586875 C338.325641,9.20874375 339.442297,8.61974375 340.360393,7.47274375 C341.278489,6.32574375 341.954774,5.02374375 342.395146,3.56480625 L343.790966,3.56480625 L343.790966,9.23586875 L350.695362,9.23586875 L350.695362,10.8129938 L343.790966,10.8943688 C343.763443,15.0270563 343.741817,17.8868063 343.730022,19.4813688 C343.71626,21.0739938 343.708396,21.9652438 343.708396,22.1551188 C343.708396,24.0713063 343.942344,25.4953688 344.406307,26.4273063 C344.874201,27.3573063 345.682204,27.8223063 346.832282,27.8223063 C347.543954,27.8223063 348.249728,27.6072438 348.949604,27.1751813 C349.645548,26.7450563 350.256957,26.1502438 350.777932,25.3926813 L351.886724,26.2839313 C350.817251,27.8513688 349.763505,28.8840563 348.72352,29.3819938 C347.679604,29.8818688 346.669108,30.1318063 345.682204,30.1318063 C341.929217,30.1318063 340.063536,27.6479313 340.093025,22.6801813" id="Fill-26"></path>
                    <path d="M357.968963,28.2694813 C358.763204,28.2694813 359.331362,28.0737938 359.673437,27.6804813 C360.015511,27.2910438 360.221935,26.7911688 360.290743,26.1847313 C360.359551,25.5744188 360.392972,24.6231063 360.392972,23.3269188 L360.392972,14.0947313 C360.392972,12.9612938 360.448019,12.0836062 360.556146,11.4616688 L357.64065,11.5837313 L357.64065,9.92329375 L358.912616,9.92329375 C359.954567,9.92329375 360.709489,9.83416875 361.173452,9.65979375 C361.639381,9.48541875 362.077786,9.20835625 362.488669,8.83054375 L363.680031,8.83054375 C363.790124,9.88260625 363.858932,11.2194813 363.886455,12.8392312 C364.570604,11.7329188 365.549644,10.7467313 366.825542,9.88260625 C368.097508,9.01848125 369.418622,8.58641875 370.788885,8.58641875 C371.61065,8.58641875 372.296765,8.80341875 372.843297,9.23548125 C373.393762,9.66560625 373.665062,10.3030438 373.665062,11.1381062 C373.665062,11.5701688 373.494025,12.0022313 373.153916,12.4342938 C372.809876,12.8663562 372.324288,13.0814187 371.69322,13.0814187 C371.091641,13.0814187 370.598189,12.8586063 370.21483,12.4129813 C369.829505,11.9673562 369.680093,11.4364812 369.762663,10.8126062 C368.720712,10.7874188 367.67483,11.1787938 366.617152,11.9886688 C365.563406,12.7985438 364.666935,13.8777312 363.925774,15.2301063 L363.969025,25.1907938 C363.969025,26.4056063 363.912012,27.3259188 363.803885,27.9459188 L366.393034,27.8238563 L366.393034,29.4842938 L357.968963,29.4842938 L357.968963,28.2694813 Z" id="Fill-28"></path>
                    <path d="M389.11876,27.2364062 C389.968048,26.8450312 390.829132,26.2444062 391.705943,25.4345312 C391.680385,25.0276562 391.666624,24.3417812 391.666624,23.3691562 L391.705943,19.5619687 C389.460834,19.6433437 387.459503,20.0947812 385.707847,20.9182187 C383.954224,21.7416562 383.077413,23.0029687 383.077413,24.7040937 C383.077413,25.7038437 383.378203,26.4730312 383.981748,27.0135937 C384.583327,27.5541562 385.350045,27.8234687 386.283868,27.8234687 C387.323853,27.8234687 388.267506,27.6277812 389.11876,27.2364062 M380.755633,28.7960937 C379.699921,27.9048437 379.173048,26.7442812 379.173048,25.3124687 C379.173048,23.7469687 379.81198,22.4255937 381.083946,21.3444687 C382.359844,20.2633437 383.960122,19.4592812 385.89068,18.9342187 C387.823203,18.4072187 389.761624,18.1572812 391.705943,18.1844062 L391.705943,15.6734062 C391.705943,13.9199687 391.446438,12.5501562 390.925463,11.5620312 C390.404488,10.5777812 389.295695,10.0837187 387.599085,10.0837187 C386.747831,10.0837187 385.939828,10.2600312 385.17311,10.6107187 C384.406392,10.9633438 383.844132,11.4884062 383.488296,12.1897812 C383.844132,12.5695312 384.023033,13.0810312 384.023033,13.7300938 C384.023033,14.1350312 383.871655,14.5205937 383.570865,14.8848438 C383.26811,15.2490937 382.83167,15.4312187 382.255649,15.4312187 C381.679627,15.4312187 381.22746,15.2490937 380.899147,14.8848438 C380.570834,14.5205937 380.405695,14.0400937 380.405695,13.4472187 C380.405695,12.5559687 380.755633,11.7383437 381.455509,10.9962812 C382.15342,10.2522812 383.124596,9.66715625 384.371005,9.23509375 C385.619379,8.80303125 387.009302,8.58603125 388.542738,8.58603125 C390.844859,8.58603125 392.541469,9.18859375 393.638466,10.3898437 C394.733497,11.5910937 395.268234,13.4859687 395.240711,16.0783437 L395.201392,25.1904062 C395.201392,26.0564687 395.144379,26.9729062 395.036252,27.9455312 L397.953714,27.7827812 L397.953714,29.4839062 L392.077506,29.4839062 C391.994937,29.0789687 391.898605,28.3097812 391.788512,27.1763437 C389.789147,29.1467812 387.638404,30.1310312 385.336283,30.1310312 C383.338884,30.1310312 381.809379,29.6873437 380.755633,28.7960937" id="Fill-30"></path>
                    <path d="M426.65591,28.227825 C424.53269,26.9607 422.873433,25.23245 421.684037,23.0450125 C420.490709,20.857575 419.896994,18.42795 419.896994,15.7561375 C419.896994,13.107575 420.435663,10.6256375 421.518898,8.302575 C422.600167,5.98145 424.216173,4.0982 426.368882,2.652825 C428.517659,1.2093875 431.114672,0.4867 434.154022,0.4867 C437.16978,0.4867 439.935864,1.3101375 442.456204,2.9570125 L442.251746,0.769575 L444.471297,0.769575 L444.471297,10.16645 L442.990941,10.16645 C442.715709,7.65545 441.819238,5.690825 440.297598,4.2745125 C438.777923,2.854325 436.82574,2.1471375 434.443015,2.1471375 C432.496731,2.1471375 430.723449,2.67995 429.121204,3.745575 C427.516994,4.8131375 426.250926,6.3321375 425.319068,8.302575 C424.389176,10.2730125 423.921282,12.5553875 423.921282,15.1477625 C423.921282,17.6316375 424.414734,19.8520125 425.401638,21.8088875 C426.388542,23.7677 427.71752,25.2925125 429.388573,26.3872 C431.057659,27.4780125 432.909579,28.026325 434.936467,28.026325 C436.772659,28.026325 438.538077,27.6213875 440.236653,26.8115125 C441.935229,26.0016375 443.33105,24.8546375 444.428046,23.368575 L445.49752,24.2191375 C443.907071,26.406575 442.086607,27.9391375 440.032195,28.816825 C437.977783,29.692575 435.921406,30.13045 433.866994,30.13045 C431.18348,30.13045 428.777164,29.4968875 426.65591,28.227825" id="Fill-32"></path>
                    <path d="M472.926768,26.6687187 C474.446443,25.4694062 475.59652,23.9232812 476.378966,22.0322812 C477.159446,20.1432187 477.550669,18.1572812 477.550669,16.0783437 C477.550669,13.7843437 477.126025,11.5620312 476.274771,9.41721875 C475.425483,7.27046875 474.194802,5.51509375 472.57683,4.15109375 C470.960824,2.78903125 469.069585,2.10509375 466.90508,2.10509375 C464.770065,2.10509375 462.933873,2.70765625 461.400437,3.90890625 C459.865034,5.11015625 458.709059,6.66984375 457.926613,8.58603125 C457.148099,10.5041562 456.75491,12.5017187 456.75491,14.5806562 C456.75491,16.7138437 457.153997,18.8528437 457.948238,20.9995937 C458.74248,23.1463437 459.945638,24.9288437 461.565576,26.3451562 C463.179616,27.7614687 465.139663,28.4725312 467.439817,28.4725312 C469.578765,28.4725312 471.407093,27.8699687 472.926768,26.6687187 M459.139601,27.9862187 C456.947573,26.5544062 455.331567,24.7118437 454.291582,22.4565937 C453.249632,20.2032812 452.730622,17.8201562 452.730622,15.3091562 C452.730622,12.9047187 453.269291,10.5700312 454.352526,8.30315625 C455.435762,6.03628125 457.049802,4.16659375 459.202511,2.69409375 C461.351288,1.22159375 463.960096,0.48534375 467.028935,0.48534375 C470.180344,0.48534375 472.85796,1.22159375 475.063749,2.69409375 C477.269539,4.16659375 478.918966,6.03628125 480.013997,8.30315625 C481.110994,10.5700312 481.657526,12.9047187 481.657526,15.3091562 C481.657526,17.6845312 481.118858,20.0134062 480.035622,22.2957812 C478.952387,24.5781562 477.336381,26.4536562 475.185638,27.9242187 C473.036861,29.3967187 470.428053,30.1310312 467.359214,30.1310312 C464.070189,30.1310312 461.331628,29.4180312 459.139601,27.9862187" id="Fill-34"></path>
                    <path d="M490.986915,8.34384375 C490.001977,6.04790625 489.412193,4.21115625 489.221497,2.83553125 L486.919376,2.91690625 L486.919376,1.13440625 L496.45224,1.13440625 L496.45224,2.47128125 L496.412921,2.51196875 C495.508587,2.56621875 494.844098,2.76190625 494.419454,3.09903125 C493.992844,3.43615625 493.782488,3.93021875 493.782488,4.57734375 C493.782488,5.19928125 493.97515,5.96653125 494.358509,6.88490625 L495.426017,9.47728125 C495.699283,10.1534687 496.116063,11.1784062 496.680289,12.5559687 C497.240584,13.9335312 497.767457,15.1870937 498.260909,16.3205312 L499.330382,18.7927812 C500.39789,21.1952812 501.150847,22.9777812 501.591218,24.1383437 L501.673788,24.1383437 L503.193463,19.8041562 L503.726234,18.3471562 L507.341605,8.34384375 L508.28919,5.75146875 C508.8082,4.29253125 509.207286,3.29665625 509.480553,2.75415625 L506.315382,2.91690625 L506.315382,1.13440625 L514.65885,1.13440625 L514.65885,2.47128125 C513.45176,2.52553125 512.527766,2.83553125 511.884902,3.40128125 C511.240073,3.96896875 510.658153,4.98228125 510.137178,6.44121875 L501.467364,29.8888437 L500.31532,29.8888437 L490.986915,8.34384375 Z" id="Fill-36"></path>
                    <path d="M520.287938,28.1483875 C521.247319,28.1212625 521.931467,27.9042625 522.34235,27.499325 C522.755198,27.0943875 522.98718,26.615825 523.04026,26.0617 C523.097272,25.5095125 523.12283,24.5446375 523.12283,23.167075 L523.12283,5.6695125 C523.12283,4.536075 523.16608,3.5653875 523.246684,2.7555125 L520.287938,2.9182625 L520.287938,1.1357625 L529.533774,1.1357625 L529.533774,2.4707 C528.576359,2.497825 527.890245,2.714825 527.479362,3.1197625 C527.06848,3.5247 526.836498,4.0032625 526.781452,4.55545 C526.72444,5.109575 526.698882,6.07445 526.698882,7.4520125 L526.698882,24.6647625 C526.698882,26.0946375 526.657598,27.1622 526.575028,27.8655125 L529.533774,27.7027625 L529.533774,29.483325 L520.287938,29.483325 L520.287938,28.1483875 Z" id="Fill-38"></path>
                    <path d="M554.972307,26.2847063 C556.751486,25.1783938 558.135511,23.6535813 559.122415,21.7083313 C560.107353,19.7650188 560.600805,17.5911438 560.600805,15.1867063 C560.600805,11.2458313 559.505774,8.16133125 557.313746,5.93320625 C555.121718,3.70701875 551.820898,2.59101875 547.409319,2.59101875 C546.451904,2.59101875 545.765789,2.78089375 545.354907,3.15870625 C544.944025,3.53845625 544.712043,4.00345625 544.656997,4.55564375 C544.60195,5.10976875 544.574427,6.07464375 544.574427,7.45220625 L544.574427,24.7056438 C544.574427,26.1083938 544.533142,27.1623938 544.450573,27.8637688 C545.409954,27.9199563 546.876548,27.9451438 548.84839,27.9451438 C551.150511,27.9451438 553.191161,27.3910188 554.972307,26.2847063 L554.972307,26.2847063 Z M538.163483,28.1485813 C539.122864,28.1214563 539.807012,27.9044563 540.217895,27.4995188 C540.630743,27.0945813 540.862724,26.6160188 540.917771,26.0618938 C540.972817,25.5097063 541.000341,24.5448313 541.000341,23.1672688 L541.000341,5.66970625 C541.000341,4.53626875 541.041625,3.56364375 541.122229,2.75376875 L538.163483,2.91651875 L538.163483,1.13595625 L547.863452,1.09333125 C553.01226,1.06620625 557.09356,2.25583125 560.107353,4.65833125 C563.123111,7.06083125 564.629025,10.6258313 564.629025,15.3494563 C564.629025,17.8875813 564.02548,20.2377688 562.820356,22.3961438 C561.615232,24.5564563 559.836053,26.2788938 557.47692,27.5595813 C555.121718,28.8422063 552.286827,29.4835188 548.972245,29.4835188 L538.163483,29.4835188 L538.163483,28.1485813 Z" id="Fill-40"></path>
                    <polygon id="Fill-42" points="573.381802 15.1063 587.971074 15.1063 587.971074 17.78005 573.381802 17.9428"></polygon>
                    <path d="M596.806224,28.1483875 C598.148964,28.0941375 599.078856,27.6892 599.599831,26.933575 C600.120807,26.1760125 600.380311,25.042575 600.380311,23.531325 L600.340992,4.41595 L600.258423,4.41595 L595.325868,7.5333875 L594.504104,6.3592625 L602.517293,0.4867 L603.915079,0.4867 L603.956364,25.0697 C603.956364,26.4201375 603.915079,27.352075 603.832509,27.8655125 L607.284707,27.7027625 L607.284707,29.483325 L596.806224,29.483325 L596.806224,28.1483875 Z" id="Fill-44"></path>
                    <path d="M627.892718,15.7135125 C629.056557,14.8242 629.844901,13.7837625 630.255783,12.596075 C630.090644,9.5716375 629.550009,7.054825 628.631913,5.0417625 C627.713817,3.0306375 626.241325,2.0270125 624.214437,2.0270125 C622.543384,2.0270125 621.234065,2.7012625 620.290412,4.0497625 C619.344793,5.4021375 618.871,7.03545 618.871,8.9516375 C618.871,11.030575 619.262223,12.9002625 620.044669,14.5587625 C620.823183,16.2211375 622.226867,17.0503875 624.253755,17.0503875 C625.515892,17.0503875 626.726913,16.6047625 627.892718,15.7135125 M619.201279,29.382575 C618.076759,28.8846375 617.249096,28.2491375 616.714359,27.4780125 C616.179622,26.7107625 615.912254,25.933825 615.912254,25.151075 C615.912254,24.5562625 616.069529,24.058325 616.386046,23.6533875 C616.700598,23.24845 617.144901,23.03145 617.720923,23.004325 C618.324467,22.9772 618.782533,23.1535125 619.097084,23.531325 C619.413601,23.9091375 619.570876,24.314075 619.570876,24.7461375 C619.570876,25.3118875 619.378214,25.8660125 618.99682,26.406575 C619.185551,27.0556375 619.625923,27.5807 620.312037,27.9856375 C620.99422,28.390575 621.953601,28.592075 623.186248,28.592075 C625.926774,28.592075 627.802285,27.235825 628.816712,24.523325 C629.829173,21.8088875 630.322625,18.7922 630.297068,15.471325 C629.557873,16.471075 628.596526,17.2867625 627.420892,17.9222625 C626.241325,18.555825 624.900551,18.873575 623.392672,18.873575 C621.33826,18.873575 619.665241,18.42795 618.379514,17.5367 C617.09182,16.64545 616.173724,15.517825 615.627192,14.153825 C615.076728,12.7917625 614.803461,11.3541375 614.803461,9.8428875 C614.803461,8.085575 615.200582,6.5007 615.994824,5.0843875 C616.791031,3.6661375 617.927347,2.5462625 619.407703,1.7208875 C620.886093,0.8993875 622.584669,0.4867 624.501464,0.4867 C628.091279,0.4867 630.597858,1.7557625 632.023167,4.29195 C633.446511,6.8320125 634.160149,10.3815125 634.160149,14.9462625 C634.160149,18.9685125 633.399328,22.4986375 631.877687,25.5347 C630.358012,28.5727 627.529019,30.1052625 623.392672,30.13045 C621.719653,30.13045 620.323833,29.8805125 619.201279,29.382575" id="Fill-46"></path>
                </g>
                <path d="M64.4237815,116.702554 C54.5918117,94.8077858 46.9588664,77.5379269 41.5269038,64.9047457 C36.0910249,52.269603 30.7863433,38.9558265 25.6148172,24.9634162 L25.4190003,33.5149874 C24.2538893,71.4831791 23.5430737,98.5638085 23.2845953,114.760798 C23.2845953,116.702554 23.2180176,118.132392 23.0907365,119.034622 C23.0907365,123.443781 22.8968777,127.525391 22.5091601,131.281414 L37.062277,130.50275 L37.062277,139.054321 L0,139.054321 L0,132.640643 C5.43196261,132.515115 8.95666799,130.98917 10.5741161,128.074575 C12.1896061,125.15998 13.1275693,120.7214 13.3899641,114.760798 L17.6568158,10.7748689 L3.68527529,11.3573956 L3.68527529,3 L33.3770017,3 L59.7652959,64.0319362 C69.3387874,86.5778792 76.7112961,103.681022 81.8867385,115.343325 L82.2744561,115.343325 C83.8272846,111.455891 87.1268005,103.096533 92.1710455,90.2691767 C97.0880095,77.830171 102.713831,64.1613866 109.054384,49.2589008 C116.428851,31.8968575 122.765488,16.4765702 128.07017,3 L156.790644,3 L156.790644,9.41367842 C152.132158,9.2861894 148.703403,10.5493114 146.504379,13.2030444 C144.303396,15.8607001 143.204863,20.365966 143.204863,26.7109965 L143.40068,30.6003923 L148.444925,119.034622 C148.703403,122.017866 148.832643,126.032789 148.832643,131.087238 L163,130.50275 L163,139.054321 L119.53255,139.054321 L119.53255,132.640643 C124.578753,132.515115 128.003592,131.055856 129.818815,128.266789 C131.626206,125.483606 132.532838,121.109751 132.532838,115.149149 C132.532838,112.687631 132.466261,110.808639 132.340938,109.512173 L127.292776,26.7109965 C127.034298,27.3621712 126.679869,28.2035987 126.227532,29.2392018 C125.771279,30.2787277 125.287611,31.506545 124.770654,32.9324607 L81.1093452,141 L75.2896649,141 L64.4237815,116.702554 Z" id="Fill-58"></path>
                <path d="M190,132.53986 C194.514141,132.413462 197.739643,131.36475 199.674554,129.409526 C201.609465,127.452327 202.704808,125.137657 202.964488,122.459592 C203.220263,119.789427 203.35108,115.122564 203.35108,108.468876 L203.35108,23.920237 C203.35108,18.439684 203.544375,13.7431957 203.930967,9.82879714 L190,10.6108869 L190,2 L283.067061,2 L284.03354,36.25 L277.64892,36.25 C277.64892,25.5515656 275.356705,18.2441616 270.780085,14.329763 C266.199559,10.4153644 259.781747,8.58851344 251.528601,8.84921001 L234.887587,9.24025487 C230.244582,9.37257813 226.890216,10.2534166 224.828394,11.8827702 C222.762667,13.5160737 221.472076,15.7991437 220.95662,18.7339551 C220.441165,21.6687666 220.183437,26.2665062 220.183437,32.5311239 L220.183437,63.8463124 L256.558198,64.0398599 L255.205127,47.209131 L263.717953,47.209131 L263.717953,88.308341 L257.331381,88.308341 C257.331381,83.4834794 256.751493,79.7962029 255.591718,77.2524363 C254.429991,74.7066947 252.657136,73.012167 250.271202,72.1629282 C247.883315,71.3156643 244.562141,70.8910449 240.30768,70.8910449 L234.3077,71.0865673 L220.183437,71.6751096 L220.183437,116.491221 C220.183437,123.279207 219.990141,128.36674 219.603549,131.75777 L256.558198,131.171203 C265.58648,131.040855 272.488507,128.72421 277.260376,124.223244 C282.032245,119.722278 284.420132,111.925081 284.420132,100.833626 L291,100.833626 L289.838273,139 L190,139 L190,132.53986 Z" id="Fill-60"></path>
                <path d="M313.580978,132.53986 C317.443119,131.75777 320.82566,130.387138 323.722753,128.429939 C326.619845,126.474715 329.162112,124.094871 331.353453,121.288433 C333.542844,118.48397 336.441887,114.405648 340.048631,109.053468 L365.165216,72.6527217 C361.813869,67.9562334 358.885582,63.8463124 356.372559,60.3229587 C353.861485,56.799605 351.638951,53.6672962 349.708856,50.9280072 C339.662612,36.708194 333.219212,27.4119911 330.388405,23.0393986 C327.5537,18.668781 325.299972,14.3969121 323.625273,10.219842 L313,10.6108869 L313,2 L363.038212,2 L363.038212,8.45816515 L354.537994,8.84921001 C348.355839,8.9795583 345.265737,10.7432101 345.265737,14.1342406 C345.265737,15.4396984 345.651756,16.8755046 346.423794,18.439684 C347.195833,20.0058384 348.418226,22.093386 350.094875,24.7023267 C353.442323,30.313228 361.42785,41.9912496 374.051454,59.7363914 L392.597916,32.5311239 C395.816692,27.8326606 399.037417,23.2684956 402.258141,18.8307289 C405.476917,14.3969121 407.987991,11.3929766 409.793312,9.82879714 L393.562964,10.6108869 L393.562964,2 L431.624836,2 L431.624836,8.45816515 C426.084098,9.24025487 421.028807,11.9815189 416.458965,16.6780072 C411.885224,21.3764704 406.827984,27.7062623 401.291144,35.6614577 L379.46157,66.9766463 L407.282238,104.35698 L413.462443,112.578797 L426.793749,130.778183 L438,130.387138 L438,139 L390.665871,139 L390.665871,132.53986 C398.394051,132.930905 402.258141,130.97568 402.258141,126.668262 C402.258141,124.320018 401.100084,121.515555 398.78007,118.254873 L392.404907,109.837533 C384.80345,100.18386 377.463239,90.3346644 370.380373,80.2859964 C363.938923,89.678973 357.563759,99.269447 351.252932,109.053468 C350.607617,110.10218 348.710665,113.036991 345.554277,117.861853 C342.395939,122.690664 339.017297,127.19163 335.410553,131.36475 L351.447891,130.387138 L351.447891,139 L313.580978,139 L313.580978,132.53986 Z" id="Fill-62"></path>
                <path d="M469.69259,74.5060261 C469.079767,73.0725607 468.773356,72.0416048 468.773356,71.4112597 L467,71.5080898 L467,69 L476.692173,69 L476.692173,71.1492488 C475.246295,71.1074789 474.522398,71.5631501 474.522398,72.5181608 C474.522398,72.8675087 474.610491,73.2472346 474.786678,73.6592372 L477.808659,81.0221232 C478.072939,81.6296847 478.402331,82.4347036 478.794921,83.4314842 C478.927061,83.7808321 479.223897,84.5288922 479.683514,85.6813604 L479.714155,85.6813604 L481.294088,81.1854053 L483.789425,74.3769193 C484.272023,72.8770018 484.722065,71.8878158 485.137635,71.4112597 L485.137635,71.378983 L483.429392,71.4758131 L482.607827,71.5080898 L482.607827,69 L490,69 L490,71.1492488 C489.233972,71.1948159 488.577102,71.481509 488.029392,72.0150239 C487.481682,72.5466403 486.978018,73.4200099 486.518401,74.6351329 L479.945878,92 L477.251374,92 L469.69259,74.5060261 Z" id="Fill-64"></path>
                <path d="M498.769558,93.5561659 C497.755884,93.2616034 496.824143,92.8516042 495.972428,92.3261683 L495.941941,92.3261683 L496.039117,93.7611655 L493.52208,93.7611655 L493.52208,85.7701616 L495.678996,85.7701616 C495.960995,87.6350609 496.648846,89.0640873 497.738736,90.0552504 C498.828626,91.0444232 500.158597,91.5400048 501.728648,91.5400048 C502.860457,91.5400048 503.799821,91.2275297 504.539117,90.6025794 C505.280318,89.9756389 505.649966,89.2173394 505.649966,88.3296712 C505.649966,87.6032163 505.406075,86.9762758 504.916386,86.4528302 C504.426698,85.9293846 503.881753,85.5193854 503.281551,85.2228326 C502.681349,84.9262798 501.728648,84.5043388 500.419637,83.9590001 C498.020735,82.9578855 496.187738,81.8194411 494.911119,80.5436669 C493.636404,79.2678927 493,77.594061 493,75.5221718 C493,74.4772709 493.249608,73.4562535 493.750729,72.4670806 C494.251849,71.4759175 495.074983,70.6519385 496.218225,69.9911631 C497.363371,69.3303877 498.840058,69 500.648285,69 C501.587649,69 502.567025,69.1433007 503.590226,69.4279118 C504.615333,69.7145132 505.467048,70.1165512 506.14156,70.6399968 L506.175857,70.6399968 L506.042479,69.2388345 L508.593813,69.2388345 L508.593813,77.1960035 L506.434992,77.1960035 C506.152993,75.3311042 505.526115,73.9080487 504.556265,72.9288273 C503.58451,71.9496059 502.349809,71.4580049 500.846447,71.4580049 C499.863259,71.4580049 499.019166,71.7386355 498.312262,72.2959159 C497.603452,72.8551867 497.249047,73.5537776 497.249047,74.3976594 C497.249047,75.398774 497.651087,76.2406656 498.458978,76.9253244 C499.264963,77.6060027 500.627326,78.3583313 502.544161,79.1763395 C504.746806,80.0878911 506.539789,81.1427434 507.925017,82.3369159 C509.306434,83.5330786 510,85.1213279 510,87.1016639 C510,88.4451079 509.651311,89.6392803 508.953934,90.6881618 C508.256557,91.7350529 507.275275,92.5470902 506.011993,93.1282541 C504.746806,93.709418 503.285362,94 501.629567,94 C500.735934,94 499.781327,93.8507284 498.769558,93.5561659" id="Fill-66"></path>
                <path d="M594.948767,133.817436 C584.913941,127.698355 577.082074,119.361502 571.449244,108.810819 C565.816415,98.2640786 563,86.5424117 563,73.6497608 C563,60.8872193 565.555745,48.907305 570.671153,37.704104 C575.786562,26.5028743 583.424397,17.4208495 593.590537,10.4521154 C603.752758,3.48732406 616.021899,0 630.394042,0 C644.63683,0 657.713462,3.97424834 669.627857,11.9168309 L668.655733,1.36614787 L679.143301,1.36614787 L679.143301,46.6895325 L672.152243,46.6895325 C670.856731,34.5775376 666.617409,25.1032134 659.430358,18.2665601 C652.245266,11.4279353 643.019891,8.00960862 631.754232,8.00960862 C622.558255,8.00960862 614.177608,10.5822247 606.602491,15.727457 C599.027374,20.8726892 593.037838,28.1982382 588.637802,37.704104 C584.233847,47.2119412 582.032849,58.2140642 582.032849,70.7183584 C582.032849,82.7022154 584.365162,93.4125781 589.025868,102.855361 C593.686574,112.298143 599.966179,119.653262 607.866644,124.928604 C615.761229,130.203945 624.502503,132.841616 634.084585,132.841616 C642.757261,132.841616 651.110469,130.888005 659.138329,126.980783 C667.166189,123.07356 673.769182,117.539972 678.949269,110.374102 L684,114.476489 C676.487601,125.027172 667.877642,132.419747 658.168165,136.650271 C648.456728,140.880795 638.745291,143 629.033853,143 C616.345287,143 604.981632,139.936517 594.948767,133.817436" id="Fill-68"></path>
                <path d="M804.647067,126.294752 C811.846224,120.502916 817.295668,113.045286 820.993435,103.927777 C824.691202,94.8122389 826.539103,85.2413185 826.539103,75.2110727 C826.539103,64.143895 824.526246,53.4276182 820.506422,43.0740705 C816.48267,32.7205228 810.646365,24.2555315 802.991615,17.6771254 C795.336864,11.102662 786.384066,7.81247329 776.137148,7.81247329 C766.017875,7.81247329 757.324293,10.7123341 750.060332,16.5081129 C742.794407,22.3038917 737.313543,29.8226333 733.615776,39.0702519 C729.918009,48.3178704 728.070108,57.9558169 728.070108,67.98212 C728.070108,78.2725844 729.94943,88.5926191 733.713964,98.9461669 C737.474571,109.299715 743.183232,117.894815 750.839946,124.73344 C758.492733,131.570093 767.769552,134.98842 778.668439,134.98842 C788.787713,134.98842 797.445946,132.090531 804.647067,126.294752 M739.357821,132.644481 C728.977367,125.744744 721.322616,116.853941 716.395534,105.977984 C711.462559,95.1059706 709,83.6110093 709,71.4990143 C709,59.9074567 711.560748,48.6411723 716.686171,37.704104 C721.80963,26.763093 729.46438,17.7461228 739.648458,10.645308 C749.832535,3.54843601 762.190499,0 776.720386,0 C791.639098,0 804.321083,3.54843601 814.764377,10.645308 C825.207672,17.7461228 833.025414,26.763093 838.215641,37.704104 C843.401941,48.6411723 846,59.9074567 846,71.4990143 C846,82.962434 843.437289,94.193234 838.313829,105.197328 C833.186443,116.205365 825.533656,125.255849 815.349579,132.350749 C805.163537,139.451564 792.807537,143 778.27765,143 C762.710897,143 749.734347,139.550132 739.357821,132.644481" id="Fill-70"></path>
                <path d="M879.360631,37.5965975 C874.667982,26.5854688 871.861865,17.7730354 870.952146,11.1632201 L860,11.5515712 L860,3 L905.369512,3 L905.369512,9.41367842 L905.174149,9.60785401 C900.870252,9.86871616 897.708929,10.8082122 895.688209,12.426342 C893.667489,14.0483947 892.657129,16.4098836 892.657129,19.5206157 C892.657129,22.5038588 893.568821,26.1971176 895.396152,30.6003923 L900.479526,43.0374366 C901.781944,46.2795804 903.77109,51.202618 906.444993,57.810472 C909.114948,64.4202874 911.627035,70.4436533 913.97336,75.8864538 L919.058707,87.7429327 C924.142082,99.277747 927.727676,107.829318 929.813518,113.397646 L930.206216,113.397646 L937.440553,92.601245 L939.98224,85.6050399 L957.189936,37.5965975 L961.689196,25.1575918 C964.163789,18.1613866 966.056241,13.3677994 967.360631,10.7748689 L952.301924,11.5515712 L952.301924,3 L992,3 L992,9.41367842 C986.26147,9.67650194 981.860878,11.1632201 978.800197,13.8836396 C975.73557,16.6060206 972.964973,21.4643329 970.488407,28.4624995 L929.22743,141 L923.751357,141 L879.360631,37.5965975 Z" id="Fill-72"></path>
                <path d="M1010,132.53986 C1014.56241,132.413462 1017.8224,131.36475 1019.778,129.409526 C1021.7336,127.452327 1022.84065,125.137657 1023.10311,122.459592 C1023.36162,119.789427 1023.49383,115.122564 1023.49383,108.468876 L1023.49383,23.920237 C1023.49383,18.439684 1023.6892,13.7431957 1024.07992,9.82879714 L1010,10.6108869 L1010,2 L1054,2 L1054,8.45816515 C1049.43365,8.58851344 1046.1776,9.63327471 1044.222,11.590474 C1042.2664,13.5476733 1041.15738,15.8643178 1040.89689,18.5364577 C1040.63444,21.2145225 1040.50617,25.8754613 1040.50617,32.5311239 L1040.50617,115.709131 C1040.50617,122.62549 1040.3108,127.780172 1039.92008,131.171203 L1054,130.387138 L1054,139 L1010,139 L1010,132.53986 Z" id="Fill-74"></path>
                <path d="M1164.38591,123.560201 C1172.79655,118.219675 1179.33271,110.859689 1183.99049,101.47827 C1188.65022,92.0968519 1190.97715,81.611041 1190.97715,70.0129494 C1190.97715,50.9917635 1185.80228,36.1041604 1175.44862,25.3560564 C1165.09496,14.6079524 1149.50375,9.23390037 1128.67302,9.23390037 C1124.1406,9.23390037 1120.90876,10.1469962 1118.96769,11.9692435 C1117.02466,13.7954351 1115.92584,16.0416903 1115.66729,18.7119532 C1115.40678,21.3841882 1115.27947,26.0403852 1115.27947,32.6864605 L1115.27947,115.939894 C1115.27947,122.714157 1115.08556,127.796334 1114.69773,131.18248 C1119.22428,131.444773 1126.15022,131.572962 1135.46578,131.572962 C1146.33458,131.572962 1155.97331,128.904671 1164.38591,123.560201 L1164.38591,123.560201 Z M1085,132.551138 C1089.52654,132.422949 1092.76427,131.377721 1094.70533,129.425313 C1096.6464,127.468961 1097.74523,125.159597 1098.00378,122.48539 C1098.26232,119.819072 1098.39356,115.156958 1098.39356,108.512855 L1098.39356,24.0879773 C1098.39356,18.6133467 1098.58551,13.9236235 1098.97333,10.0168356 L1085,10.7958267 L1085,2.1993156 L1130.80604,2.00210269 C1155.13303,1.87391429 1174.41247,7.6068938 1188.65022,19.2010412 C1202.8821,30.7991329 1210,47.9980714 1210,70.7939125 C1210,83.0428068 1207.15206,94.3766332 1201.46009,104.799336 C1195.7642,115.224011 1187.35553,123.530619 1176.22622,129.717188 C1165.09496,135.907701 1151.70336,139 1136.04751,139 L1085,139 L1085,132.551138 Z" id="Fill-76"></path>
                <path d="M1243.80308,132.59206 C1250.10309,132.335429 1254.47766,130.394044 1256.92096,126.767906 C1259.36426,123.147645 1260.58688,117.711376 1260.58688,110.461059 L1260.39414,18.8320179 L1260.00866,18.8320179 L1236.85866,33.7812667 L1233,28.1510556 L1270.619,0 L1277.17989,0 L1277.37263,117.838712 C1277.37263,124.3113 1277.17989,128.777856 1276.79247,131.234462 L1293,130.456733 L1293,139 L1243.80308,139 L1243.80308,132.59206 Z" id="Fill-78"></path>
                <path d="M1380.89002,73.4545968 C1386.48321,69.1550752 1390.26913,64.143895 1392.24179,58.4111995 C1391.45272,43.8271275 1388.8524,31.6816195 1384.4428,21.9786184 C1380.03122,12.2775886 1372.95753,7.42411668 1363.21777,7.42411668 C1355.18565,7.42411668 1348.90103,10.6807924 1344.35993,17.1921725 C1339.81882,23.7055239 1337.54728,31.5850232 1337.54728,40.828699 C1337.54728,50.8589448 1339.4223,59.875915 1343.17434,67.8855236 C1346.92638,75.8951323 1353.67129,79.9009223 1363.41304,79.9009223 C1369.46851,79.9009223 1375.29085,77.7521471 1380.89002,73.4545968 M1339.1274,139.384538 C1333.72749,136.977516 1329.74829,133.916004 1327.17985,130.203945 C1324.6134,126.491887 1323.33017,122.750258 1323.33017,118.971174 C1323.33017,116.108769 1324.08536,113.695833 1325.60172,111.744193 C1327.1121,109.790582 1329.25413,108.747736 1332.01984,108.617626 C1334.91308,108.487517 1337.11688,109.335199 1338.63324,111.156729 C1340.14561,112.982203 1340.90478,114.935814 1340.90478,117.017563 C1340.90478,119.75183 1339.98222,122.423014 1338.13907,125.027172 C1339.05965,128.153738 1341.16581,130.692841 1344.45757,132.644481 C1347.74733,134.600063 1352.35618,135.577855 1358.28014,135.577855 C1371.44317,135.577855 1380.45962,129.03099 1385.3315,115.943175 C1390.20138,102.855361 1392.56857,88.3008588 1392.44105,72.2816416 C1388.88627,77.1016005 1384.27543,81.0423358 1378.61847,84.0999049 C1372.95753,87.1614166 1366.50554,88.6911868 1359.26647,88.6911868 C1349.3932,88.6911868 1341.36308,86.5424117 1335.17809,82.2448614 C1328.98912,77.9453397 1324.57952,72.5103186 1321.94731,65.9338838 C1319.31311,59.3574491 1318,52.422228 1318,45.1282207 C1318,36.6632294 1319.90691,29.0104358 1323.72669,22.171811 C1327.5425,15.337129 1333.00617,9.93167813 1340.11373,5.95940115 C1347.22328,1.98712417 1355.38292,0 1364.59863,0 C1381.84248,0 1393.88567,6.12499483 1400.73419,18.3651277 C1407.57873,30.607232 1411,47.7343498 1411,69.7425385 C1411,89.1485408 1407.34759,106.177091 1400.04277,120.826218 C1392.73595,135.479287 1379.14252,142.867919 1359.26647,143 C1351.23635,143 1344.52332,141.793532 1339.1274,139.384538" id="Fill-80"></path>
            </g>
        </g>
    </g>
</svg>